<?xml version="1.0" encoding="UTF-8"?>
<svg width="133px" height="136px" viewBox="0 0 133 136" version="1.1" xmlns="http://www.w3.org/2000/svg" xmlns:xlink="http://www.w3.org/1999/xlink">
    <!-- Generator: Sketch 49.2 (51160) - http://www.bohemiancoding.com/sketch -->
    <title>Easy icon</title>
    <desc>Created with Sketch.</desc>
    <defs>
        <linearGradient x1="90.9768537%" y1="108.277771%" x2="26.374985%" y2="0%" id="linearGradient-1">
            <stop stop-color="#7072E4" offset="0%"></stop>
            <stop stop-color="#B998FB" offset="100%"></stop>
        </linearGradient>
        <linearGradient x1="9.95752927%" y1="174.596079%" x2="62.7852632%" y2="-4.74718848%" id="linearGradient-2">
            <stop stop-color="#7072E4" offset="0%"></stop>
            <stop stop-color="#E1D2FF" offset="100%"></stop>
        </linearGradient>
        <linearGradient x1="4.65388576%" y1="103.866567%" x2="123.364666%" y2="-28.7132294%" id="linearGradient-3">
            <stop stop-color="#FF7BC1" offset="0%"></stop>
            <stop stop-color="#FFCE9E" offset="100%"></stop>
        </linearGradient>
    </defs>
    <g id="Website-/-Desktop-(Reworked)" stroke="none" stroke-width="1" fill="none" fill-rule="evenodd">
        <g id="1.-Homepage" transform="translate(-195.000000, -4612.000000)">
            <g id="Section-6" transform="translate(147.000000, 4352.000000)">
                <g id="Group-29" transform="translate(0.000000, 193.000000)">
                    <g id="Group-5" transform="translate(278.000000, 267.000000) scale(-1, 1) translate(-278.000000, -267.000000) ">
                        <g id="Easy-icon" transform="translate(375.000000, 67.000000)">
                            <g id="Group-9" transform="translate(32.000000, 26.000000)">
                                <path d="M13,14 L97,14 C99.209139,14 101,15.790861 101,18 L101,106 C101,108.209139 99.209139,110 97,110 L13,110 C10.790861,110 9,108.209139 9,106 L9,18 C9,15.790861 10.790861,14 13,14 Z" id="Rectangle-4" fill="url(#linearGradient-1)" opacity="0.200000003"></path>
                                <path d="M4,8.02195472e-15 L70.1954994,1.4077628e-13 L87,-3.15303339e-14 C89.209139,-5.54814612e-14 91,1.790861 91,4 L91,20.1635792 L91,94 C91,96.209139 89.209139,98 87,98 L4,98 C1.790861,98 2.705415e-16,96.209139 0,94 L-7.99360578e-15,4 C-8.26414728e-15,1.790861 1.790861,4.05812251e-16 4,0 Z" id="Rectangle-4" fill="url(#linearGradient-2)"></path>
                                <path d="M4,0 L87,0 C89.209139,-4.05812251e-16 91,1.790861 91,4 L91,20 L0,20 L0,4 C-2.705415e-16,1.790861 1.790861,4.05812251e-16 4,0 Z" id="Rectangle-4" fill="url(#linearGradient-1)"></path>
                                <circle id="Oval-8" fill="#FFFFFF" cx="82.5" cy="10.5" r="2.5"></circle>
                                <circle id="Oval-8" fill="#FFFFFF" cx="73.5" cy="10.5" r="2.5"></circle>
                                <circle id="Oval-8" fill="#FFFFFF" cx="64.5" cy="10.5" r="2.5"></circle>
                                <path d="M33.0373397,61 L75.7611847,61" id="Path-2" stroke="#FFFFFF" stroke-width="6" opacity="0.699999988" stroke-linecap="round"></path>
                                <path d="M33.0373397,79 L75.7611847,79" id="Path-2" stroke="#FFFFFF" stroke-width="6" opacity="0.699999988" stroke-linecap="round"></path>
                            </g>
                            <g id="Group-50" transform="translate(33.500000, 33.000000) scale(-1, 1) translate(-33.500000, -33.000000) ">
                                <ellipse id="Oval-3" fill="url(#linearGradient-3)" cx="33.5" cy="33" rx="33.5" ry="33"></ellipse>
                                <path d="M30.9396013,45.2577455 L30.9396013,45.2577455 C30.29969,45.9711433 29.2026162,46.0307158 28.4892185,45.3908045 C28.0993982,45.0411392 27.8883353,44.5341318 27.9148755,44.0111392 L27.9171895,43.96554 C28.0406233,41.5331935 26.1688798,39.4613243 23.7365333,39.3378905 C23.5866632,39.3302851 23.4365026,39.3303345 23.2866376,39.3380387 L23.2866376,39.3380387 C22.3241921,39.3875157 21.5038668,38.6474085 21.4543899,37.684963 C21.4275355,37.1625818 21.6364377,36.6557052 22.0235599,36.3039388 L22.0340517,36.2944052 C23.8535014,34.6411251 23.9882085,31.8259213 22.3349284,30.0064716 C22.2394897,29.9014404 22.1390828,29.8010335 22.0340517,29.7055948 L22.0235599,29.6960612 C21.3103182,29.0479597 21.2575118,27.9443729 21.9056133,27.2311313 C22.2573798,26.8440091 22.7642564,26.6351069 23.2866376,26.6619613 L23.2866376,26.6619613 C25.7189021,26.786998 27.7920045,24.9166204 27.9170413,22.4843558 C27.9247455,22.3344908 27.9247949,22.1843301 27.9171895,22.03446 L27.9148755,21.9888608 C27.8663051,21.0317486 28.6028238,20.2164818 29.559936,20.1679115 C30.0829285,20.1413713 30.589936,20.3524342 30.9396013,20.7422545 L30.9396013,20.7422545 C32.5611088,22.5499734 35.3410461,22.7009276 37.148765,21.0794201 C37.2671692,20.9732126 37.3797232,20.8606586 37.4859306,20.7422545 L37.4859306,20.7422545 C38.1258419,20.0288567 39.2229157,19.9692842 39.9363134,20.6091955 C40.3261337,20.9588608 40.5371966,21.4658682 40.5106564,21.9888608 L40.5083424,22.03446 C40.3849086,24.4668065 42.2566521,26.5386757 44.6889986,26.6621095 C44.8388687,26.6697149 44.9890293,26.6696655 45.1388944,26.6619613 L45.1388944,26.6619613 C46.1013399,26.6124843 46.9216651,27.3525915 46.9711421,28.315037 C46.9979964,28.8374182 46.7890942,29.3442948 46.401972,29.6960612 L46.3914803,29.7055948 C44.5720305,31.3588749 44.4373234,34.1740787 46.0906035,35.9935284 C46.1860422,36.0985596 46.2864491,36.1989665 46.3914803,36.2944052 L46.401972,36.3039388 C47.1152137,36.9520403 47.1680202,38.0556271 46.5199186,38.7688687 C46.1681521,39.1559909 45.6612755,39.3648931 45.1388944,39.3380387 L45.1388944,39.3380387 C42.7066298,39.213002 40.6335274,41.0833796 40.5084907,43.5156442 C40.5007865,43.6655092 40.500737,43.8156699 40.5083424,43.96554 L40.5106564,44.0111392 C40.5592268,44.9682514 39.8227081,45.7835182 38.865596,45.8320885 C38.3426034,45.8586287 37.8355959,45.6475658 37.4859306,45.2577455 L37.4859306,45.2577455 C35.8644231,43.4500266 33.0844858,43.2990724 31.2767669,44.9205799 C31.1583627,45.0267874 31.0458087,45.1393414 30.9396013,45.2577455 Z" id="Star" stroke="#FFFFFF" stroke-width="4.32" stroke-linecap="round" stroke-linejoin="round"></path>
                                <ellipse id="Oval-9" fill="#FFFFFF" cx="34.212766" cy="33" rx="2.85106383" ry="2.86956522"></ellipse>
                            </g>
                        </g>
                    </g>
                </g>
            </g>
        </g>
    </g>
</svg>