<?xml version="1.0" encoding="UTF-8"?>
<svg width="410px" height="292px" viewBox="0 0 410 292" version="1.1" xmlns="http://www.w3.org/2000/svg" xmlns:xlink="http://www.w3.org/1999/xlink">
    <!-- Generator: Sketch 49.2 (51160) - http://www.bohemiancoding.com/sketch -->
    <title>Group 58</title>
    <desc>Created with Sketch.</desc>
    <defs>
        <linearGradient x1="85.1787391%" y1="50%" x2="12.4553988%" y2="100%" id="linearGradient-1">
            <stop stop-color="#FCD3BB" offset="0%"></stop>
            <stop stop-color="#FF72AA" offset="100%"></stop>
        </linearGradient>
    </defs>
    <g id="Website-/-Desktop-(Reworked)" stroke="none" stroke-width="1" fill="none" fill-rule="evenodd" opacity="0.200000003">
        <g id="1.-Homepage" transform="translate(-883.000000, -4545.000000)" fill-rule="nonzero">
            <g id="Section-6" transform="translate(147.000000, 4352.000000)">
                <g id="Group-29" transform="translate(0.000000, 193.000000)">
                    <g id="Group-5" transform="translate(868.000000, 267.000000) scale(-1, 1) translate(-868.000000, -267.000000) translate(590.000000, 0.000000)">
                        <g id="Group-58" transform="translate(-146.000000, -55.000000)">
                            <path d="M52.6674582,151.633285 C30.7740928,156.3595 9.18136446,142.504148 4.43874954,120.68649 C-0.30386538,98.868832 13.5995649,77.3507715 35.4929303,72.6245566 L323.354202,10.4827065 C345.247567,5.75649158 366.840295,19.6118437 371.58291,41.4295015 C376.325525,63.2471594 362.422095,84.7652198 340.52873,89.4914347 L52.6674582,151.633285 Z" id="Path-5-Copy-11" fill="url(#linearGradient-1)" transform="translate(188.010830, 81.057996) scale(-1, 1) rotate(3.000000) translate(-188.010830, -81.057996) "></path>
                            <path d="M300.644922,274.534411 C289.668574,276.914044 278.842951,269.937923 276.465217,258.952808 C274.087483,247.967694 281.058038,237.133426 292.034386,234.753793 L436.355078,203.465589 C447.331426,201.085956 458.157049,208.062077 460.534783,219.047192 C462.912517,230.032306 455.941962,240.866574 444.965614,243.246207 L300.644922,274.534411 Z" id="Path-5-Copy-11" fill="url(#linearGradient-1)" transform="translate(368.500000, 239.000000) scale(-1, 1) rotate(3.000000) translate(-368.500000, -239.000000) "></path>
                            <path d="M457.920169,71.7219401 C451.275028,73.1431096 444.721138,68.9768149 443.281645,62.4162605 C441.842152,55.855706 446.062163,49.3852403 452.707304,47.9640708 L540.079831,29.2780599 C546.724972,27.8568904 553.278862,32.0231851 554.718355,38.5837395 C556.157848,45.144294 551.937837,51.6147597 545.292696,53.0359292 L457.920169,71.7219401 Z" id="Path-5-Copy-11" fill="#FB8EA9" transform="translate(499.000000, 50.500000) scale(-1, 1) rotate(3.000000) translate(-499.000000, -50.500000) "></path>
                            <path d="M147.389069,347.767206 C141.871229,348.957022 136.429159,345.468961 135.233866,339.976404 C134.038573,334.483847 137.542689,329.066713 143.060529,327.876896 L215.610931,312.232794 C221.128771,311.042978 226.570841,314.531039 227.766134,320.023596 C228.961427,325.516153 225.457311,330.933287 219.939471,332.123104 L147.389069,347.767206 Z" id="Path-5-Copy-11" fill="url(#linearGradient-1)" transform="translate(181.500000, 330.000000) scale(-1, 1) rotate(3.000000) translate(-181.500000, -330.000000) "></path>
                        </g>
                    </g>
                </g>
            </g>
        </g>
    </g>
</svg>