<?xml version="1.0" encoding="UTF-8"?>
<svg width="1440px" height="1864px" viewBox="0 0 1440 1864" version="1.1" xmlns="http://www.w3.org/2000/svg" xmlns:xlink="http://www.w3.org/1999/xlink">
    <!-- Generator: Sketch 49.2 (51160) - http://www.bohemiancoding.com/sketch -->
    <title>Group 59</title>
    <desc>Created with Sketch.</desc>
    <defs>
        <linearGradient x1="-28.9872828%" y1="-46.0657355%" x2="50%" y2="100%" id="linearGradient-1">
            <stop stop-color="#FCD3BB" offset="0%"></stop>
            <stop stop-color="#F88691" offset="100%"></stop>
        </linearGradient>
        <linearGradient x1="-28.9872828%" y1="-46.0657355%" x2="50%" y2="100%" id="linearGradient-2">
            <stop stop-color="#BBD4FC" offset="0%"></stop>
            <stop stop-color="#9E86F8" offset="100%"></stop>
        </linearGradient>
        <linearGradient x1="-5.41858755%" y1="115.931545%" x2="28.6937743%" y2="-47.9122349%" id="linearGradient-3">
            <stop stop-color="#FF895B" offset="0%"></stop>
            <stop stop-color="#FFEC9E" offset="100%"></stop>
        </linearGradient>
        <linearGradient x1="32.2083327%" y1="106.596615%" x2="69.0062244%" y2="-1.47901224%" id="linearGradient-4">
            <stop stop-color="#A2F8E4" offset="0%"></stop>
            <stop stop-color="#4BC39D" offset="100%"></stop>
        </linearGradient>
        <linearGradient x1="-24.3674273%" y1="157.004848%" x2="259.370884%" y2="-106.660279%" id="linearGradient-5">
            <stop stop-color="#52B2F6" offset="0%"></stop>
            <stop stop-color="#B69CF5" offset="100%"></stop>
        </linearGradient>
    </defs>
    <g id="Website-/-Desktop-(Reworked)" stroke="none" stroke-width="1" fill="none" fill-rule="evenodd">
        <g id="1.-Homepage" transform="translate(0.000000, -849.000000)">
            <g id="BG" transform="translate(-400.000000, 832.000000)">
                <g id="Group-59" transform="translate(131.000000, 0.000000)">
                    <path d="M1240.23999,641.430947 C1226.77171,644.339387 1213.48838,635.813017 1210.57083,622.386766 C1207.65329,608.960515 1216.20635,595.718631 1229.67463,592.810191 L1406.76001,554.569053 C1420.22829,551.660613 1433.51162,560.186983 1436.42917,573.613234 C1439.34671,587.039485 1430.79365,600.281369 1417.32537,603.189809 L1240.23999,641.430947 Z" id="Path-5" fill="url(#linearGradient-1)" fill-rule="nonzero" opacity="0.100000001" transform="translate(1323.500000, 598.000000) rotate(3.000000) translate(-1323.500000, -598.000000) "></path>
                    <path d="M1585.23999,366.430947 C1571.77171,369.339387 1558.48838,360.813017 1555.57083,347.386766 C1552.65329,333.960515 1561.20635,320.718631 1574.67463,317.810191 L1751.76001,279.569053 C1765.22829,276.660613 1778.51162,285.186983 1781.42917,298.613234 C1784.34671,312.039485 1775.79365,325.281369 1762.32537,328.189809 L1585.23999,366.430947 Z" id="Path-5-Copy" fill="url(#linearGradient-1)" fill-rule="nonzero" opacity="0.200000003" transform="translate(1668.500000, 323.000000) rotate(3.000000) translate(-1668.500000, -323.000000) "></path>
                    <path d="M739.239985,339.430947 C725.771709,342.339387 712.488378,333.813017 709.570834,320.386766 C706.65329,306.960515 715.206349,293.718631 728.674625,290.810191 L905.760015,252.569053 C919.228291,249.660613 932.511622,258.186983 935.429166,271.613234 C938.34671,285.039485 929.793651,298.281369 916.325375,301.189809 L739.239985,339.430947 Z" id="Path-5-Copy-4" fill="url(#linearGradient-1)" fill-rule="nonzero" opacity="0.100000001" transform="translate(822.500000, 296.000000) rotate(3.000000) translate(-822.500000, -296.000000) "></path>
                    <path d="M946.239985,1005.43095 C932.771709,1008.33939 919.488378,999.813017 916.570834,986.386766 C913.65329,972.960515 922.206349,959.718631 935.674625,956.810191 L1112.76001,918.569053 C1126.22829,915.660613 1139.51162,924.186983 1142.42917,937.613234 C1145.34671,951.039485 1136.79365,964.281369 1123.32537,967.189809 L946.239985,1005.43095 Z" id="Path-5-Copy-3" fill="url(#linearGradient-2)" fill-rule="nonzero" opacity="0.200000003" transform="translate(1029.500000, 962.000000) rotate(3.000000) translate(-1029.500000, -962.000000) "></path>
                    <path d="M438.117348,1380.65728 C430.048249,1382.40895 422.089953,1377.27375 420.341997,1369.18748 C418.594042,1361.10122 423.718341,1353.12599 431.787441,1351.37432 L537.882652,1328.34272 C545.951751,1326.59105 553.910047,1331.72625 555.658003,1339.81252 C557.405958,1347.89878 552.281659,1355.87401 544.212559,1357.62568 L438.117348,1380.65728 Z" id="Path-5-Copy-9" fill="url(#linearGradient-2)" fill-rule="nonzero" opacity="0.200000003" transform="translate(488.000000, 1354.500000) rotate(3.000000) translate(-488.000000, -1354.500000) "></path>
                    <path d="M1626.23999,1159.43095 C1612.77171,1162.33939 1599.48838,1153.81302 1596.57083,1140.38677 C1593.65329,1126.96051 1602.20635,1113.71863 1615.67463,1110.81019 L1792.76001,1072.56905 C1806.22829,1069.66061 1819.51162,1078.18698 1822.42917,1091.61323 C1825.34671,1105.03949 1816.79365,1118.28137 1803.32537,1121.18981 L1626.23999,1159.43095 Z" id="Path-5-Copy-5" fill="url(#linearGradient-2)" fill-rule="nonzero" opacity="0.100000001" transform="translate(1709.500000, 1116.000000) rotate(3.000000) translate(-1709.500000, -1116.000000) "></path>
                    <path d="M75.2047238,1020.68083 C43.9369635,1027.42312 13.0985682,1007.65745 6.32524015,976.532957 C-0.448087934,945.408466 19.4085727,914.711373 50.676333,907.96908 L461.795276,819.319168 C493.063037,812.576875 523.901432,832.342552 530.67476,863.467043 C537.448088,894.591534 517.591427,925.288627 486.323667,932.03092 L75.2047238,1020.68083 Z" id="Path-5-Copy-2" fill="url(#linearGradient-1)" fill-rule="nonzero" opacity="0.200000003" transform="translate(268.500000, 920.000000) rotate(3.000000) translate(-268.500000, -920.000000) "></path>
                    <path d="M1658.15663,1887.07529 C1636.26326,1891.8015 1614.67053,1877.94615 1609.92792,1856.12849 C1605.1853,1834.31084 1619.08873,1812.79278 1640.9821,1808.06656 L1928.84337,1745.92471 C1950.73674,1741.1985 1972.32947,1755.05385 1977.07208,1776.87151 C1981.8147,1798.68916 1967.91127,1820.20722 1946.0179,1824.93344 L1658.15663,1887.07529 Z" id="Path-5-Copy-6" fill="url(#linearGradient-1)" fill-rule="nonzero" opacity="0.200000003" transform="translate(1793.500000, 1816.500000) rotate(3.000000) translate(-1793.500000, -1816.500000) "></path>
                    <path d="M188.393624,387.088398 C166.840085,391.747614 145.582517,378.088674 140.913516,356.5803 C136.244516,335.071927 149.932139,313.858904 171.485677,309.199687 L348.606376,270.911602 C370.159915,266.252386 391.417483,279.911326 396.086484,301.4197 C400.755484,322.928073 387.067861,344.141096 365.514323,348.800313 L188.393624,387.088398 Z" id="Path-5" fill="url(#linearGradient-3)" fill-rule="nonzero" opacity="0.300000012" transform="translate(268.500000, 329.000000) rotate(3.000000) translate(-268.500000, -329.000000) "></path>
                    <path d="M1381.77126,1475.75361 C1376.09568,1477.00038 1370.48771,1473.39328 1369.24549,1467.69693 C1368.00327,1462.00058 1371.59721,1456.37208 1377.27278,1455.12531 L1595.22874,1407.24639 C1600.90432,1405.99962 1606.51229,1409.60672 1607.75451,1415.30307 C1608.99673,1420.99942 1605.40279,1426.62792 1599.72722,1427.87469 L1381.77126,1475.75361 Z" id="Path-5-Copy-10" fill="url(#linearGradient-4)" fill-rule="nonzero" opacity="0.229999989" transform="translate(1488.500000, 1441.500000) rotate(3.000000) translate(-1488.500000, -1441.500000) "></path>
                    <path d="M1351.22175,106.650058 C1343.12397,108.420829 1335.12263,103.297703 1333.35026,95.2072364 C1331.57789,87.1167702 1336.70564,79.1226587 1344.80343,77.3518887 L1655.77825,9.34994154 C1663.87603,7.57917147 1671.87737,12.7022974 1673.64974,20.7927636 C1675.42211,28.8832298 1670.29436,36.8773413 1662.19657,38.6481113 L1351.22175,106.650058 Z" id="Path-5" fill="url(#linearGradient-5)" fill-rule="nonzero" opacity="0.100000001" transform="translate(1503.500000, 58.000000) rotate(3.000000) translate(-1503.500000, -58.000000) "></path>
                    <path d="M538,618 L628,602" id="Path-5" stroke="#5A2AB5" stroke-width="30" opacity="0.100000001" stroke-linecap="round"></path>
                    <path d="M1595.22175,902.650058 C1587.12397,904.420829 1579.12263,899.297703 1577.35026,891.207236 C1575.57789,883.11677 1580.70564,875.122659 1588.80343,873.351889 L1899.77825,805.349942 C1907.87603,803.579171 1915.87737,808.702297 1917.64974,816.792764 C1919.42211,824.88323 1914.29436,832.877341 1906.19657,834.648111 L1595.22175,902.650058 Z" id="Path-5" fill="url(#linearGradient-4)" fill-rule="nonzero" opacity="0.229999989" transform="translate(1747.500000, 854.000000) rotate(3.000000) translate(-1747.500000, -854.000000) "></path>
                    <path d="M94.2217503,1773.65006 C86.1239688,1775.42083 78.1226291,1770.2977 76.3502579,1762.20724 C74.5778868,1754.11677 79.705645,1746.12266 87.8034265,1744.35189 L398.77825,1676.34994 C406.876031,1674.57917 414.877371,1679.7023 416.649742,1687.79276 C418.422113,1695.88323 413.294355,1703.87734 405.196574,1705.64811 L94.2217503,1773.65006 Z" id="Path-5-Copy-7" fill="url(#linearGradient-4)" fill-rule="nonzero" opacity="0.229999989" transform="translate(246.500000, 1725.000000) rotate(3.000000) translate(-246.500000, -1725.000000) "></path>
                </g>
            </g>
        </g>
    </g>
</svg>